<svg xmlns="http://www.w3.org/2000/svg" width="103" height="103" viewBox="0 0 103 103">
  <g id="Grupo_35" data-name="Grupo 35" transform="translate(-4455 1178)">
    <rect id="Rectángulo_23" data-name="Rectángulo 23" width="90" height="90" transform="translate(4461 -1171)" fill="#fff"/>
    <g id="Group_2" data-name="Group 2" transform="translate(4455 -1178)">
      <path id="Combined_Shape" data-name="Combined Shape" d="M87,103H16A16,16,0,0,1,0,87V16A16,16,0,0,1,16,0H87a16,16,0,0,1,16,16V87a16,16,0,0,1-16,16ZM76.987,55a11.525,11.525,0,0,0-1.48.12,8.924,8.924,0,0,0-1.966.528,13.374,13.374,0,0,0-2.234,1.127,9.376,9.376,0,0,0-2.185,1.919,11.3,11.3,0,0,0-1.748,2.855,16.462,16.462,0,0,0-.923,2.878,15.3,15.3,0,0,0-.34,2.446c-.033.74-.049,1.25-.049,1.559a16.588,16.588,0,0,0,.535,4.414,13.143,13.143,0,0,0,1.383,3.31,11.25,11.25,0,0,0,1.845,2.326A8.3,8.3,0,0,0,71.791,79.9a7.785,7.785,0,0,0,2.744.935A17.275,17.275,0,0,0,76.453,81a7.749,7.749,0,0,0,3.5-.671,8.156,8.156,0,0,0,1.991-1.344,7.219,7.219,0,0,0,.607-.575,4.453,4.453,0,0,0,.462-.624l.049,2.687H90v-24.9H83.2V58.79l-.437-.72a3.727,3.727,0,0,0-.631-.815c-.267-.264-.529-.505-.778-.719A7.567,7.567,0,0,0,79.8,55.527,6.235,6.235,0,0,0,76.987,55ZM13,55.624V69.679c0,.089.014.291.049.7.031.354.071.784.122,1.319.048.5.122,1.045.219,1.606a7.6,7.6,0,0,0,.436,1.559A7.837,7.837,0,0,0,15.5,77.642a9.83,9.83,0,0,0,2.477,1.894,11.674,11.674,0,0,0,3.01,1.1,15.168,15.168,0,0,0,3.277.36,13.58,13.58,0,0,0,3.472-.408,10.846,10.846,0,0,0,2.646-1.056,9.245,9.245,0,0,0,1.869-1.39A11.379,11.379,0,0,0,33.49,76.73a8.86,8.86,0,0,0,1.5-3.55,24.132,24.132,0,0,0,.292-3.885V55.624H28.2V70.542a6.122,6.122,0,0,1-.1,1.008,7.862,7.862,0,0,1-.315,1.223,3.138,3.138,0,0,1-.656,1.127,3.8,3.8,0,0,1-1.067.768,4.744,4.744,0,0,1-1.991.432,3.812,3.812,0,0,1-2.38-.743,3.924,3.924,0,0,1-1.36-2.087,4.852,4.852,0,0,1-.218-1.223c-.015-.377-.024-.656-.024-.791V55.624Zm27.308,0V80.473h7.186V68.479c0-.643.008-1.24.024-1.775.017-.519.042-.987.073-1.39a5.382,5.382,0,0,1,.582-2.111,6.9,6.9,0,0,1,1.141-1.271,3.654,3.654,0,0,1,2.452-.84,3.333,3.333,0,0,1,1.359.24,5.926,5.926,0,0,1,.825.431,3.03,3.03,0,0,1,1.068,1.152,4.831,4.831,0,0,1,.462,1.439,8.4,8.4,0,0,1,.1,1.583c-.016.576-.024,1.078-.024,1.535v13h7.331V64.858a18.578,18.578,0,0,0-.121-2.135,11.729,11.729,0,0,0-.437-2.086,7.738,7.738,0,0,0-.947-1.991,7.29,7.29,0,0,0-1.846-1.966A8.428,8.428,0,0,0,57.5,55.6a8.6,8.6,0,0,0-1.894-.455,13.251,13.251,0,0,0-1.36-.1,8.771,8.771,0,0,0-2.4.312,9.286,9.286,0,0,0-2.209.983,8.42,8.42,0,0,0-1.506,1.2c-.316.344-.586.642-.825.912V55.624ZM25.817,22a14.439,14.439,0,0,0-3.459.38,13.02,13.02,0,0,0-2.66.949,11.025,11.025,0,0,0-1.958,1.234,13.645,13.645,0,0,0-1.355,1.233A10.977,10.977,0,0,0,14.5,28.453a14.684,14.684,0,0,0-1.016,2.632,12.319,12.319,0,0,0-.41,2.3C13.024,34.085,13,34.628,13,35a15.182,15.182,0,0,0,.314,3.2,16.206,16.206,0,0,0,.774,2.586A10.955,10.955,0,0,0,15.1,42.757a11.182,11.182,0,0,0,1.039,1.352,10.766,10.766,0,0,0,2.66,2.159,13.071,13.071,0,0,0,2.709,1.162,12.617,12.617,0,0,0,2.394.474c.716.063,1.294.1,1.717.1.234,0,.59-.016,1.088-.048a17.2,17.2,0,0,0,1.741-.213,16.434,16.434,0,0,0,2.08-.5,11.884,11.884,0,0,0,2.152-.9,10.913,10.913,0,0,0,2.95-2.444,14.124,14.124,0,0,0,.9-1.186c.242-.364.429-.659.556-.878a4.3,4.3,0,0,0,.41-.973,6.422,6.422,0,0,1,.218-.688L30.557,39.7c-.028.058-.1.179-.241.4a5.054,5.054,0,0,1-.436.592,5.263,5.263,0,0,1-1.354,1.068,5.172,5.172,0,0,1-2.612.545,5.6,5.6,0,0,1-1.5-.167c-.384-.109-.709-.213-.967-.308a4.43,4.43,0,0,1-1.16-.807,5.436,5.436,0,0,1-.8-.972,6.359,6.359,0,0,1-.484-.9,3.828,3.828,0,0,1-.218-.641,4.391,4.391,0,0,1-.241-.877c-.031-.233-.064-.432-.1-.593H38.006v-1.85a15.6,15.6,0,0,0-.338-3.012,17.4,17.4,0,0,0-1.137-3.511,11.689,11.689,0,0,0-2.3-3.393,9.574,9.574,0,0,0-2.394-1.826,13.006,13.006,0,0,0-2.395-.973,10.765,10.765,0,0,0-2.1-.4C26.71,22.024,26.2,22,25.817,22Zm15.692.712V47.288h7.157V35.427c0-.635.008-1.226.024-1.756.017-.514.042-.977.073-1.375a5.278,5.278,0,0,1,.581-2.088,6.873,6.873,0,0,1,1.137-1.257,3.661,3.661,0,0,1,2.443-.831,3.35,3.35,0,0,1,1.354.238,6.1,6.1,0,0,1,.823.427,3,3,0,0,1,1.064,1.139,4.805,4.805,0,0,1,.46,1.423,8.358,8.358,0,0,1,.1,1.566c-.016.562-.023,1.073-.023,1.518V47.288H64V31.845a18.164,18.164,0,0,0-.121-2.111,11.4,11.4,0,0,0-.435-2.064A7.682,7.682,0,0,0,62.5,25.7a7.25,7.25,0,0,0-1.839-1.945,8.444,8.444,0,0,0-2.031-1.068,8.712,8.712,0,0,0-1.886-.45,13.456,13.456,0,0,0-1.354-.1A8.8,8.8,0,0,0,53,22.451a9.218,9.218,0,0,0-2.2.973,8.338,8.338,0,0,0-1.5,1.185c-.339.368-.585.638-.823.9v-2.8ZM78.055,75.2a5.045,5.045,0,0,1-1.772-.409,4.172,4.172,0,0,1-1.918-1.895,7.485,7.485,0,0,1-.608-1.487,11.151,11.151,0,0,1-.315-1.439c-.063-.438-.1-.834-.121-1.175-.017-.366-.024-.6-.024-.743,0-.166.01-.542.024-1.056a8.617,8.617,0,0,1,.291-1.847,9.21,9.21,0,0,1,.826-2.063,4.485,4.485,0,0,1,1.675-1.7,3.635,3.635,0,0,1,2.066-.686,1.524,1.524,0,0,1,.217.014,3.251,3.251,0,0,1,1.286.239,4.821,4.821,0,0,1,1.7,1.223c.186.216.321.365.413.456a7,7,0,0,1,.923,2.494,15.375,15.375,0,0,1,.243,2.639,14.651,14.651,0,0,1-.437,3.6,5.387,5.387,0,0,1-1.942,2.927A3.779,3.779,0,0,1,78.055,75.2ZM30.509,31.726H20.5c.112-.434.174-.653.218-.783a3.3,3.3,0,0,1,.266-.545,4.616,4.616,0,0,1,1.089-1.589,4.869,4.869,0,0,1,1.306-.878,4.548,4.548,0,0,1,1.282-.356,9.645,9.645,0,0,1,1.015-.071,5.6,5.6,0,0,1,1.863.284,4.611,4.611,0,0,1,1.329.712,3.792,3.792,0,0,1,.847.925,5.061,5.061,0,0,1,.459.877,4.572,4.572,0,0,1,.218.736c.048.232.088.463.121.686Z" fill="#e13f4d"/>
    </g>
  </g>
</svg>
